<svg width="43" height="43" viewBox="0 0 43 43" fill="none" xmlns="http://www.w3.org/2000/svg">
<path d="M0 13C0 5.8203 5.8203 0 13 0H30C37.1797 0 43 5.8203 43 13V30C43 37.1797 37.1797 43 30 43H13C5.8203 43 0 37.1797 0 30V13Z" fill="#0EF387"/>
<path d="M27.7618 13.8567C27.6826 13.3101 27.1753 12.9312 26.6288 13.0103L17.7217 14.3004C17.1751 14.3795 16.7962 14.8868 16.8754 15.4334C16.9545 15.98 17.4618 16.3589 18.0084 16.2797L25.9258 15.133L27.0725 23.0504C27.1516 23.597 27.6589 23.9759 28.2055 23.8968C28.7521 23.8176 29.131 23.3103 29.0518 22.7637L27.7618 13.8567ZM16.8012 29.0193L27.5733 14.5985L25.9709 13.4016L15.1988 27.8224L16.8012 29.0193Z" fill="#0C0D0D"/>
</svg>
